<?xml version="1.0" standalone="no"?>
<!DOCTYPE svg PUBLIC "-//W3C//DTD SVG 20010904//EN"
 "http://www.w3.org/TR/2001/REC-SVG-20010904/DTD/svg10.dtd">
<svg version="1.0" xmlns="http://www.w3.org/2000/svg"
 width="132.000000pt" height="132.000000pt" viewBox="0 0 132.000000 132.000000"
 preserveAspectRatio="xMidYMid meet">
<metadata>
Created by potrace 1.14, written by Peter Selinger 2001-2017
</metadata>
<g transform="translate(0.000000,132.000000) scale(0.100000,-0.100000)"
fill="#000000" stroke="none">
<path d="M496 1304 c-40 -39 -41 -86 -2 -120 22 -19 36 -21 166 -21 131 0 144
1 166 21 29 26 36 62 18 97 -18 35 -36 39 -196 39 -111 0 -140 -3 -152 -16z"/>
<path d="M255 1062 c-33 -32 -33 -75 0 -107 47 -48 120 -23 131 46 12 71 -79
114 -131 61z"/>
<path d="M968 1075 c-69 -38 -34 -145 47 -145 35 0 75 42 75 77 -1 32 -15 55
-47 71 -28 15 -42 15 -75 -3z"/>
<path d="M272 847 c-22 -10 -42 -47 -42 -78 0 -11 11 -31 25 -44 23 -24 28
-25 173 -25 141 0 150 1 169 23 36 38 31 96 -10 119 -26 14 -285 18 -315 5z"/>
<path d="M784 624 c-5 -1 -20 -5 -34 -8 -62 -13 -69 -115 -11 -139 17 -7 81
-12 166 -11 138 0 138 0 161 28 30 34 30 67 1 102 -23 26 -26 27 -149 28 -69
1 -129 1 -134 0z"/>
<path d="M255 365 c-57 -56 -9 -140 73 -128 35 6 62 42 62 83 0 32 -44 70 -80
70 -19 0 -40 -9 -55 -25z"/>
<path d="M955 365 c-27 -26 -32 -70 -12 -96 50 -65 147 -31 147 52 0 31 -44
69 -80 69 -19 0 -40 -9 -55 -25z"/>
<path d="M490 135 c-33 -35 -31 -82 3 -111 25 -22 36 -23 155 -23 70 -1 141 4
159 10 59 19 64 112 7 138 -15 6 -81 11 -163 11 -134 0 -138 -1 -161 -25z"/>
</g>
</svg>
